#N canvas 372 211 953 549 10;
#X declare -lib mrpeach;
#X declare -lib pduino;
#X declare -lib mrpeach;
#X declare -lib mrpeach;
#X declare -lib mrpeach;
#X obj 64 75 import mrpeach;
#X obj 273 45 r OSC_in;
#X obj 307 87 r senderID;
#X floatatom 41 327 5 0 0 0 - - -;
#N canvas 55 295 739 383 OSC_receiver 0;
#X obj 37 101 unpackOSC;
#X text 112 121 from;
#X text 59 35 RECEIVER;
#X floatatom 88 165 10 0 0 1 millisecond_delay - -;
#X obj 37 193 s OSC_in;
#X obj 37 65 udpreceive 56789;
#X floatatom 363 265 3 0 0 0 - - -;
#X floatatom 390 265 3 0 0 0 - - -;
#X floatatom 417 265 3 0 0 0 - - -;
#X floatatom 444 265 3 0 0 0 - - -;
#X floatatom 471 266 5 0 0 0 - - -;
#X obj 363 239 unpack 0 0 0 0 0;
#X floatatom 242 186 9 0 0 0 - - -;
#X obj 423 212 tgl 15 0 empty empty empty 17 7 0 10 -4034 -1 -1 0 1
;
#X floatatom 302 212 9 0 0 0 - - -;
#X text 150 210 total bytes received:;
#X text 320 264 from:;
#X obj 242 153 route received total from multicast;
#X obj 471 297 s senderID;
#X connect 0 0 4 0;
#X connect 0 1 3 0;
#X connect 5 0 0 0;
#X connect 5 1 17 0;
#X connect 9 0 18 0;
#X connect 11 0 6 0;
#X connect 11 1 7 0;
#X connect 11 2 8 0;
#X connect 11 3 9 0;
#X connect 11 4 10 0;
#X connect 17 0 12 0;
#X connect 17 1 14 0;
#X connect 17 2 11 0;
#X connect 17 3 13 0;
#X restore 62 101 pd OSC_receiver;
#X obj 44 298 hsl 128 15 -10 10 0 0 empty empty movA -2 -8 0 10 -262144
-1 -1 6350 1;
#X floatatom 216 342 5 0 0 0 - - -;
#X obj 218 318 hsl 128 15 -10 10 0 0 empty empty movB -2 -8 0 10 -262144
-1 -1 6350 1;
#X obj 411 319 hsl 128 15 -10 10 0 0 empty empty movC -2 -8 0 10 -262144
-1 -1 6350 1;
#X floatatom 406 349 5 0 0 0 - - -;
#X obj 565 237 vsl 15 128 -10 10 0 0 empty empty movD 0 -9 0 10 -262144
-1 -1 6350 1;
#X text 372 129 <-argument:ultim numero de la ip del client.mirar OSC_receiver.
;
#X floatatom 561 377 5 0 0 0 - - -;
#X obj 620 236 vsl 15 128 0 10 0 0 empty empty Energia 0 -9 0 10 -262144
-1 -1 131 1;
#X floatatom 621 376 5 0 0 0 - - -;
#X obj 574 168 tgl 15 0 empty empty on/off 17 7 0 10 -4034 -1 -1 0
1;
#N canvas 159 181 639 455 arduino 0;
#X obj 15 48 cnv 15 60 22 empty empty empty 20 12 0 14 -253938 -66577
0;
#N canvas 146 163 525 433 serin 0;
#X obj 180 61 cnv 15 15 15 empty \$0-number-canvas 0 4 8 0 14 -233017
-1 0;
#X obj 200 225 s \$0-number-canvas;
#X obj 60 61 hradio 15 1 1 8 empty empty empty 0 -6 0 8 -225271 -1
-1 0;
#X obj 60 13 inlet;
#X msg 200 202 label \$1;
#X obj 200 180 makefilename %d;
#X obj 59 108 int;
#X msg 59 206 open \$1;
#X obj 59 377 outlet;
#X msg 201 306 set \$1 \$2;
#X obj 59 266 trigger bang anything;
#X obj 201 286 list;
#X obj 383 383 outlet;
#X obj 384 22 netreceive 34567;
#X obj 477 43 tgl 15 0 empty empty empty 0 -6 0 10 -262144 -1 -1 0
1;
#X obj 384 41 bng 15 250 50 0 empty empty empty 0 -6 0 10 -262144 -1
-1;
#X obj 187 24 delay 15000;
#X text 345 379 close;
#X text 209 4 for open/close automation in Makefile;
#X obj 184 95 bang;
#X obj 184 137 send ARDUINO_TEST_RESET;
#X msg 184 116 set 0;
#X connect 2 0 6 0;
#X connect 2 0 19 0;
#X connect 3 0 2 0;
#X connect 4 0 1 0;
#X connect 5 0 4 0;
#X connect 6 0 5 0;
#X connect 6 0 7 0;
#X connect 7 0 10 0;
#X connect 9 0 8 0;
#X connect 10 0 8 0;
#X connect 10 1 11 0;
#X connect 11 0 9 0;
#X connect 13 0 15 0;
#X connect 13 1 14 0;
#X connect 15 0 16 0;
#X connect 15 0 12 0;
#X connect 16 0 2 0;
#X connect 19 0 21 0;
#X connect 21 0 20 0;
#X coords 0 -1 1 1 136 17 1 60 60;
#X restore 21 27 pd serin;
#X text 18 9 serial port #;
#X msg 81 50 close;
#X msg 21 50 open 0;
#X obj 112 310 arduino 0;
#X msg 120 185 pinMode 11 pwm;
#N canvas 3 48 451 224 ver 0;
#X obj 23 7 inlet;
#X obj 250 100 cnv 15 145 17 empty \$0-version_cnv empty 4 10 0 12
-203904 -1 0;
#X obj 23 157 send \$0-version_cnv;
#X msg 23 132 label \$1;
#X obj 48 103 symbol;
#X obj 38 77 loadbang;
#X msg 96 78 bang;
#X obj 309 163 outlet;
#X obj 23 52 zexy/makesymbol Firmata-%s.%s;
#X obj 23 29 route version bang;
#X connect 0 0 9 0;
#X connect 3 0 2 0;
#X connect 4 0 3 0;
#X connect 5 0 4 0;
#X connect 6 0 4 0;
#X connect 8 0 3 0;
#X connect 9 0 8 0;
#X connect 9 1 7 0;
#X connect 9 1 6 0;
#X connect 9 2 7 0;
#X coords 0 -1 1 1 145 17 1 250 100;
#X restore 165 367 pd ver;
#N canvas 649 518 411 212 firmware 0;
#X obj 123 2 inlet;
#X obj 250 100 cnv 15 145 17 empty \$0-firmware_cnv empty 4 10 0 12
-232576 -66577 0;
#X msg 123 156 label \$1;
#X obj 148 127 symbol;
#X obj 138 101 loadbang;
#X msg 196 102 bang;
#X obj 123 181 send \$0-firmware_cnv;
#X obj 123 24 route firmware;
#X obj 18 181 print Firmware;
#X obj 123 49 list;
#X obj 123 80 zexy/makesymbol %s-%s.%s;
#X obj 18 151 list trim;
#X obj 204 45 route bang;
#X connect 0 0 7 0;
#X connect 2 0 6 0;
#X connect 3 0 2 0;
#X connect 4 0 3 0;
#X connect 5 0 3 0;
#X connect 7 0 9 0;
#X connect 7 1 12 0;
#X connect 9 0 10 0;
#X connect 10 0 2 0;
#X connect 10 0 11 0;
#X connect 11 0 8 0;
#X connect 12 0 5 0;
#X coords 0 -1 1 1 145 17 1 250 100;
#X restore 165 387 pd firmware;
#N canvas 626 98 404 287 device 0;
#X obj 35 60 inlet;
#X obj 35 118 route open port ports;
#X obj 35 169 tgl 15 0 empty empty open -3 20 0 10 -262144 -1 -1 0
1;
#X floatatom 76 170 5 0 0 3 port - -;
#X obj 117 170 print comport_ports;
#X obj 252 170 outlet;
#X obj 235 74 receive ARDUINO_TEST_RESET;
#X obj 235 97 bang;
#X connect 0 0 1 0;
#X connect 1 0 2 0;
#X connect 1 1 3 0;
#X connect 1 2 4 0;
#X connect 1 3 5 0;
#X connect 6 0 7 0;
#X connect 7 0 5 0;
#X restore 165 345 pd device info;
#X text 257 345 <- open to see info;
#X obj 273 159 r energia1;
#X msg 135 157 pinMode 10 pwm;
#X msg 155 131 pinMode 9 pwm;
#X obj 115 105 t b b b;
#X obj 117 77 bng 15 250 50 0 empty empty empty 17 7 0 10 -262144 -1
-1;
#N canvas 733 330 450 300 skate1 0;
#X obj 48 98 hsl 150 17 0 1 0 0 empty ARDUINO_TEST_RESET analog_output_(0-1)
20 9 1 10 -225271 -1 -1 2 0;
#X floatatom 48 71 5 0 0 0 - - -;
#X floatatom 69 121 5 0 0 0 - - -;
#X obj 38 45 autoscale 0 0.15;
#X msg 43 145 analog 9 \$1;
#X obj 38 14 inlet;
#X obj 43 186 outlet;
#X connect 0 0 4 0;
#X connect 0 0 2 0;
#X connect 3 0 1 0;
#X connect 3 0 0 0;
#X connect 4 0 6 0;
#X connect 5 0 3 0;
#X restore 271 191 pd skate1;
#X obj 359 159 r energia2;
#N canvas 729 328 450 300 skate2 0;
#X obj 48 98 hsl 150 17 0 1 0 0 empty ARDUINO_TEST_RESET analog_output_(0-1)
20 9 1 10 -225271 -1 -1 0 0;
#X floatatom 48 71 5 0 0 0 - - -;
#X floatatom 69 121 5 0 0 0 - - -;
#X obj 38 45 autoscale 0 0.15;
#X obj 38 14 inlet;
#X obj 43 186 outlet;
#X msg 43 145 analog 10 \$1;
#X connect 0 0 6 0;
#X connect 0 0 2 0;
#X connect 3 0 1 0;
#X connect 3 0 0 0;
#X connect 4 0 3 0;
#X connect 6 0 5 0;
#X restore 357 191 pd skate2;
#X obj 460 162 r energia3;
#N canvas 729 328 450 300 skate3 0;
#X obj 48 98 hsl 150 17 0 1 0 0 empty ARDUINO_TEST_RESET analog_output_(0-1)
20 9 1 10 -225271 -1 -1 0 0;
#X floatatom 48 71 5 0 0 0 - - -;
#X floatatom 69 121 5 0 0 0 - - -;
#X obj 38 45 autoscale 0 0.15;
#X obj 38 14 inlet;
#X obj 43 186 outlet;
#X msg 43 145 analog 11 \$1;
#X connect 0 0 6 0;
#X connect 0 0 2 0;
#X connect 3 0 1 0;
#X connect 3 0 0 0;
#X connect 4 0 3 0;
#X connect 6 0 5 0;
#X restore 458 194 pd skate3;
#X connect 1 0 4 0;
#X connect 1 1 3 0;
#X connect 3 0 5 0;
#X connect 4 0 5 0;
#X connect 5 1 9 0;
#X connect 6 0 5 0;
#X connect 7 0 8 0;
#X connect 9 0 7 0;
#X connect 11 0 16 0;
#X connect 12 0 5 0;
#X connect 13 0 5 0;
#X connect 14 0 6 0;
#X connect 14 1 12 0;
#X connect 14 2 13 0;
#X connect 15 0 14 0;
#X connect 16 0 5 0;
#X connect 17 0 18 0;
#X connect 18 0 5 0;
#X connect 19 0 20 0;
#X connect 20 0 5 0;
#X restore 190 43 pd arduino;
#X obj 65 30 import pduino;
#X obj 657 354 s energia1;
#X obj 634 426 bng 15 250 50 0 empty empty empty 17 7 0 10 -262144
-1 -1;
#X obj 676 92 r OSC_in;
#X obj 746 94 r senderID;
#X obj 747 190 s energia2;
#X obj 738 254 r OSC_in;
#X obj 808 256 r senderID;
#X obj 809 352 s energia3;
#X obj 9 323 bng 15 250 50 0 empty empty empty 17 7 0 10 -262144 -1
-1;
#N canvas 826 297 450 300 filtreA 0;
#X obj 174 9 sel 0;
#X obj 139 24 bng 15 250 50 0 empty empty empty 17 7 0 10 -262144 -1
-1;
#X obj 184 45 bng 15 250 50 0 empty empty empty 17 7 0 10 -262144 -1
-1;
#X obj 109 72 cup;
#X floatatom 106 108 5 0 0 0 - - -;
#X msg 150 70 0;
#X obj 60 23 bng 15 250 50 0 empty empty empty 17 7 0 10 -262144 -1
-1;
#X obj 145 137 sel 1;
#X msg 167 166 0;
#X floatatom 234 169 5 0 0 0 - - -;
#X obj 230 58 abs;
#X obj 300 168 change;
#X floatatom 298 189 5 0 0 0 - - -;
#X obj 357 184 bng 15 250 50 0 empty empty empty 17 7 0 10 -262144
-1 -1;
#X floatatom 327 108 5 0 0 0 - - -;
#X floatatom 205 98 5 0 0 0 - - -;
#X obj 264 80 moses 1;
#X obj 146 110 > 3;
#X obj 52 59 metro 50;
#X obj 92 -2 inlet;
#X obj 270 224 outlet;
#X connect 0 0 1 0;
#X connect 0 1 2 0;
#X connect 2 0 5 0;
#X connect 3 0 4 0;
#X connect 3 0 17 0;
#X connect 5 0 3 0;
#X connect 6 0 18 0;
#X connect 7 0 8 0;
#X connect 8 0 9 0;
#X connect 8 0 11 0;
#X connect 10 0 15 0;
#X connect 10 0 16 0;
#X connect 11 0 12 0;
#X connect 11 0 13 0;
#X connect 11 0 20 0;
#X connect 16 1 9 0;
#X connect 16 1 11 0;
#X connect 16 1 14 0;
#X connect 17 0 7 0;
#X connect 18 0 3 0;
#X connect 19 0 10 0;
#X connect 19 0 0 0;
#X restore 54 445 pd filtreA;
#X obj 677 122 client_and 207;
#X obj 739 284 client_and 208;
#X obj 399 58 hsl 128 15 0 127 0 0 empty empty empty -2 -8 0 10 -262144
-1 -1 12700 1;
#X obj 272 129 client_and 103;
#X floatatom 434 97 5 0 0 0 - - -;
#X connect 1 0 31 0;
#X connect 2 0 31 1;
#X connect 5 0 3 0;
#X connect 5 0 26 0;
#X connect 7 0 6 0;
#X connect 8 0 9 0;
#X connect 10 0 12 0;
#X connect 13 0 14 0;
#X connect 13 0 19 0;
#X connect 20 0 28 0;
#X connect 21 0 28 1;
#X connect 23 0 29 0;
#X connect 24 0 29 1;
#X connect 28 4 22 0;
#X connect 29 4 25 0;
#X connect 30 0 31 2;
#X connect 30 0 32 0;
#X connect 31 0 5 0;
#X connect 31 1 7 0;
#X connect 31 2 8 0;
#X connect 31 3 10 0;
#X connect 31 4 13 0;
#X connect 31 4 18 0;
#X connect 31 5 15 0;
